<?xml version="1.0" standalone="no"?>
<!DOCTYPE svg PUBLIC "-//W3C//DTD SVG 20010904//EN"
 "http://www.w3.org/TR/2001/REC-SVG-20010904/DTD/svg10.dtd">
<svg version="1.0" xmlns="http://www.w3.org/2000/svg"
 width="860.000000pt" height="872.000000pt" viewBox="0 0 860.000000 872.000000"
 preserveAspectRatio="xMidYMid meet">

<g transform="translate(0.000000,872.000000) scale(0.100000,-0.100000)"
fill="#000000" stroke="none">
<path d="M870 8289 c-58 -26 -507 -474 -536 -534 -30 -63 -26 -168 8 -225 16
-26 812 -830 1920 -1937 1488 -1487 1903 -1896 1938 -1912 61 -28 150 -28 206
0 65 31 3835 3798 3863 3859 25 55 28 155 5 208 -23 57 -475 507 -539 538 -68
33 -145 32 -211 -1 -38 -19 -397 -372 -1634 -1610 l-1585 -1585 -1595 1594
c-1469 1468 -1599 1595 -1644 1610 -67 22 -141 20 -196 -5z"/>
<path d="M895 5228 c-50 -18 -92 -54 -318 -281 -250 -250 -274 -284 -264 -386
2 -32 14 -75 25 -97 30 -57 3804 -3826 3859 -3853 56 -28 151 -28 213 0 66 29
3830 3793 3859 3859 25 55 27 152 5 206 -20 48 -458 493 -524 532 -38 23 -56
27 -120 27 -53 0 -85 -6 -110 -19 -19 -10 -751 -734 -1627 -1609 l-1592 -1591
-1591 1589 c-1254 1254 -1600 1595 -1638 1612 -51 25 -125 29 -177 11z"/>
</g>
</svg>
